<?xml version="1.0" encoding="UTF-8"?>
<!-- Generator: Adobe Illustrator 15.0.0, SVG Export Plug-In . SVG Version: 6.00 Build 0)  -->
<!DOCTYPE svg PUBLIC "-//W3C//DTD SVG 1.1//EN" "http://www.w3.org/Graphics/SVG/1.1/DTD/svg11.dtd">
<svg version="1.1" id="Layer_1" xmlns="http://www.w3.org/2000/svg" xmlns:xlink="http://www.w3.org/1999/xlink" x="0px" y="0px" width="650px" height="50px" viewBox="0 0 650 50" enable-background="new 0 0 650 50" xml:space="preserve">
<g>
	<g>
		<path fill="#F5A127" d="M361.734,5.954c4.281,0,7.84,1.431,10.674,4.29c2.834,2.861,4.251,6.456,4.251,10.782    c0,4.202-1.438,7.69-4.312,10.466c-2.876,2.775-6.496,4.162-10.859,4.162c-4.22,0-7.748-1.408-10.581-4.227    c-2.837-2.818-4.252-6.338-4.252-10.56c0-4.265,1.431-7.815,4.298-10.655C353.816,7.374,357.41,5.954,361.734,5.954z     M361.428,11.147c-2.673,0-4.863,0.907-6.576,2.722c-1.713,1.816-2.568,4.129-2.568,6.936c0,2.787,0.876,5.062,2.63,6.824    c1.753,1.76,4.007,2.645,6.76,2.645c2.732,0,4.971-0.893,6.712-2.676c1.745-1.785,2.614-4.068,2.614-6.856    c0-2.765-0.904-5.056-2.721-6.872C366.463,12.055,364.181,11.147,361.428,11.147z"/>
		<path fill="#F5A127" d="M381.461,33.059v-6.207c1.569,1.141,3.177,2.064,4.817,2.771c1.641,0.709,3.022,1.061,4.145,1.061    c1.162,0,2.159-0.295,2.999-0.887c0.834-0.59,1.253-1.297,1.253-2.121c0-0.844-0.271-1.545-0.812-2.105    c-0.539-0.559-1.707-1.367-3.502-2.422c-3.589-2.069-5.938-3.837-7.051-5.304c-1.11-1.468-1.666-3.065-1.666-4.798    c0-2.238,0.842-4.063,2.523-5.479c1.682-1.413,3.848-2.12,6.498-2.12c2.756,0,5.578,0.802,8.473,2.405v5.701    c-3.302-2.07-6.005-3.104-8.105-3.104c-1.08,0-1.951,0.238-2.613,0.713c-0.663,0.475-0.995,1.104-0.995,1.886    c0,0.677,0.302,1.321,0.901,1.935c0.602,0.611,1.654,1.352,3.164,2.215l1.989,1.172c4.691,2.745,7.036,5.781,7.036,9.117    c0,2.385-0.902,4.344-2.706,5.873c-1.806,1.529-4.125,2.293-6.959,2.293c-1.672,0-3.161-0.184-4.464-0.553    C385.082,34.73,383.438,34.051,381.461,33.059z"/>
		<path fill="#F5A127" d="M405.502,16.086c0-3.102,1.096-5.557,3.287-7.361c2.191-1.806,5.184-2.708,8.978-2.708h11.591v4.497    h-5.689c1.103,1.16,1.866,2.217,2.296,3.166c0.428,0.95,0.643,2.037,0.643,3.262c0,1.52-0.421,3.014-1.255,4.481    c-0.836,1.466-1.911,2.591-3.228,3.37c-1.314,0.783-3.471,1.406-6.468,1.869c-2.102,0.316-3.15,1.066-3.15,2.248    c0,0.678,0.392,1.23,1.178,1.662c0.784,0.432,2.205,0.881,4.267,1.348c3.444,0.781,5.664,1.393,6.653,1.836    c0.985,0.443,1.88,1.076,2.674,1.898c1.346,1.395,2.019,3.146,2.019,5.256c0,2.768-1.187,4.971-3.562,6.619    c-2.375,1.646-5.552,2.471-9.527,2.471c-4.018,0-7.224-0.828-9.617-2.488c-2.397-1.656-3.597-3.877-3.597-6.664    c0-3.947,2.356-6.49,7.067-7.631c-1.878-1.244-2.814-2.48-2.814-3.705c0-0.928,0.401-1.771,1.206-2.533    c0.808-0.76,1.892-1.318,3.259-1.678C407.57,23.402,405.502,20.33,405.502,16.086z M414.646,36.51    c-1.874,0-3.409,0.412-4.603,1.234c-1.192,0.824-1.789,1.879-1.789,3.166c0,2.998,2.611,4.498,7.831,4.498    c2.465,0,4.378-0.375,5.734-1.123c1.354-0.75,2.033-1.812,2.033-3.182c0-1.352-0.855-2.457-2.568-3.311    C419.569,36.938,417.359,36.51,414.646,36.51z M415.962,11.021c-1.51,0-2.794,0.527-3.854,1.582    c-1.06,1.057-1.59,2.322-1.59,3.799c0,1.5,0.52,2.74,1.559,3.721c1.042,0.983,2.354,1.474,3.946,1.474    c1.569,0,2.88-0.501,3.931-1.504c1.051-1.002,1.574-2.253,1.574-3.753c0-1.52-0.529-2.785-1.59-3.8    C418.877,11.527,417.553,11.021,415.962,11.021z"/>
		<path fill="#F5A127" d="M472.178,28.342v5.699c-2.794,1.076-5.527,1.613-8.197,1.613c-4.403,0-7.918-1.35-10.536-4.053    c-2.621-2.701-3.932-6.32-3.932-10.86c0-4.581,1.274-8.274,3.824-11.083c2.549-2.807,5.902-4.21,10.062-4.21    c1.447,0,2.747,0.142,3.899,0.427c1.15,0.285,2.574,0.818,4.267,1.599v6.144c-2.814-1.857-5.425-2.787-7.829-2.787    c-2.508,0-4.567,0.914-6.18,2.74c-1.61,1.826-2.416,4.153-2.416,6.98c0,2.979,0.872,5.342,2.616,7.094    c1.741,1.752,4.093,2.629,7.048,2.629C466.947,30.273,469.405,29.629,472.178,28.342z"/>
		<path fill="#F5A127" d="M491.967,5.954c4.281,0,7.839,1.431,10.676,4.29c2.83,2.861,4.25,6.456,4.25,10.782    c0,4.202-1.438,7.69-4.312,10.466c-2.877,2.775-6.495,4.162-10.857,4.162c-4.222,0-7.751-1.408-10.584-4.227    s-4.253-6.338-4.253-10.56c0-4.265,1.435-7.815,4.299-10.655C484.049,7.374,487.642,5.954,491.967,5.954z M491.661,11.147    c-2.673,0-4.863,0.907-6.577,2.722c-1.711,1.816-2.569,4.129-2.569,6.936c0,2.787,0.877,5.062,2.631,6.824    c1.753,1.76,4.007,2.645,6.761,2.645c2.73,0,4.968-0.893,6.712-2.676c1.743-1.785,2.616-4.068,2.616-6.856    c0-2.765-0.909-5.056-2.725-6.872C496.695,12.055,494.412,11.147,491.661,11.147z"/>
		<path fill="#F5A127" d="M518.637,6.017v3.705c2.487-2.849,5.311-4.273,8.472-4.273c1.753,0,3.384,0.469,4.893,1.408    c1.51,0.939,2.655,2.227,3.441,3.862c0.784,1.637,1.178,4.228,1.178,7.773v16.656h-5.566V18.557c0-2.977-0.439-5.104-1.313-6.381    c-0.879-1.277-2.347-1.915-4.405-1.915c-2.63,0-4.863,1.362-6.698,4.083v20.805h-5.69V6.017H518.637z"/>
		<path fill="#F5A127" d="M549.956,6.017v3.705c2.485-2.849,5.312-4.273,8.474-4.273c1.751,0,3.384,0.469,4.891,1.408    c1.509,0.939,2.657,2.227,3.443,3.862c0.783,1.637,1.178,4.228,1.178,7.773v16.656h-5.567V18.557c0-2.977-0.439-5.104-1.315-6.381    c-0.878-1.277-2.346-1.915-4.404-1.915c-2.631,0-4.864,1.362-6.698,4.083v20.805h-5.688V6.017H549.956z"/>
		<path fill="#F5A127" d="M599.688,21.09h-19.789c0.143,2.785,1.045,5.004,2.707,6.65c1.66,1.646,3.807,2.469,6.438,2.469    c3.671,0,7.055-1.182,10.155-3.547v5.637c-1.714,1.184-3.409,2.027-5.093,2.533c-1.683,0.504-3.655,0.76-5.917,0.76    c-3.101,0-5.609-0.664-7.525-1.994c-1.915-1.33-3.45-3.119-4.602-5.367c-1.153-2.25-1.729-4.85-1.729-7.807    c0-4.432,1.213-8.035,3.64-10.812c2.425-2.776,5.577-4.163,9.45-4.163c3.732,0,6.708,1.351,8.932,4.052    c2.222,2.703,3.334,6.322,3.334,10.862V21.09z M580.021,17.639h14.16c-0.143-2.301-0.805-4.074-1.987-5.32    c-1.183-1.244-2.773-1.867-4.772-1.867s-3.632,0.623-4.907,1.867C581.24,13.564,580.408,15.338,580.021,17.639z"/>
		<path fill="#F5A127" d="M626.816,28.342v5.699c-2.793,1.076-5.525,1.613-8.197,1.613c-4.403,0-7.918-1.35-10.536-4.053    c-2.62-2.701-3.931-6.32-3.931-10.86c0-4.581,1.276-8.274,3.824-11.083c2.549-2.807,5.903-4.21,10.062-4.21    c1.446,0,2.748,0.142,3.899,0.427s2.573,0.818,4.268,1.599v6.144c-2.814-1.857-5.426-2.787-7.831-2.787    c-2.509,0-4.568,0.914-6.179,2.74s-2.416,4.153-2.416,6.98c0,2.979,0.872,5.342,2.616,7.094c1.742,1.752,4.092,2.629,7.048,2.629    C621.587,30.273,624.043,29.629,626.816,28.342z"/>
		<path fill="#F5A127" d="M629.202,10.64L639.664,0v6.017h8.899v5.194h-8.899v14.258c0,3.328,1.335,4.992,4.005,4.992    c1.999,0,4.108-0.684,6.331-2.057v5.383c-2.138,1.246-4.475,1.867-7.004,1.867c-2.549,0-4.67-0.77-6.362-2.311    c-0.53-0.461-0.969-0.986-1.313-1.568c-0.349-0.58-0.639-1.34-0.872-2.279c-0.235-0.938-0.353-2.727-0.353-5.367V11.211h-4.894    V10.64z"/>
	</g>
	<g>
		<g>
			<path fill="#F0822F" d="M36.11,12.414L0,23.998l36.11,11.585l36.108-11.585L36.11,12.414z M5.974,23.598L36.11,13.93     l30.135,9.668L36.11,33.266L5.974,23.598z"/>
			<path fill="#F1A529" d="M36.11,6.259L0,17.845L36.11,29.43l36.108-11.585L36.11,6.259z M5.974,17.443L36.11,7.776l30.135,9.667     l-30.135,9.67L5.974,17.443z"/>
			<path fill="#FFCD2B" d="M36.11,0.105L0,11.689l36.11,11.585l36.108-11.585L36.11,0.105z M5.974,11.291l30.136-9.67l30.135,9.67     L36.11,20.956L5.974,11.291z"/>
		</g>
		<g>
			<path fill="#F0822F" d="M84.256,16.759l-7.222,2.316l7.222,2.316l7.222-2.316L84.256,16.759z M78.229,18.995l6.027-1.935     l6.026,1.935l-6.026,1.934L78.229,18.995z"/>
			<path fill="#F1A529" d="M84.256,15.527l-7.222,2.317l7.222,2.317l7.222-2.317L84.256,15.527z M78.229,17.764l6.027-1.934     l6.027,1.934l-6.027,1.934L78.229,17.764z"/>
			<path fill="#FFCD2B" d="M84.256,14.296l-7.222,2.317l7.222,2.316l7.222-2.316L84.256,14.296z M78.229,16.533l6.027-1.934     l6.027,1.934l-6.027,1.934L78.229,16.533z"/>
		</g>
		<g>
			<path fill="#F0822F" d="M103.515,16.759l-7.222,2.316l7.222,2.316l7.222-2.316L103.515,16.759z M97.488,18.994l6.027-1.934     l6.027,1.934l-6.027,1.936L97.488,18.994z"/>
			<path fill="#F1A529" d="M103.515,15.527l-7.222,2.317l7.222,2.317l7.222-2.317L103.515,15.527z M97.487,17.765l6.027-1.935     l6.027,1.935l-6.027,1.933L97.487,17.765z"/>
			<path fill="#FFCD2B" d="M103.515,14.297l-7.222,2.316l7.222,2.317l7.222-2.317L103.515,14.297z M97.487,16.533l6.027-1.934     l6.027,1.934l-6.027,1.934L97.487,16.533z"/>
		</g>
		<g>
			<path fill="#F0822F" d="M151.662,12.414l-36.11,11.583l36.11,11.586l36.109-11.586L151.662,12.414z M121.526,23.598l30.136-9.668     l30.135,9.668l-30.135,9.668L121.526,23.598z"/>
			<path fill="#F1A529" d="M151.663,6.259l-36.111,11.586l36.111,11.585l36.109-11.585L151.663,6.259z M121.525,17.443l30.137-9.668     l30.134,9.668l-30.134,9.67L121.525,17.443z"/>
			<path fill="#FFCD2B" d="M151.663,0.105l-36.111,11.584l36.111,11.585l36.109-11.585L151.663,0.105z M121.525,11.289l30.137-9.668     l30.134,9.668l-30.134,9.667L121.525,11.289z"/>
		</g>
		<g>
			<path fill="#F0822F" d="M199.808,16.759l-7.222,2.316l7.222,2.316l7.223-2.316L199.808,16.759z M193.781,18.994l6.026-1.934     l6.028,1.934l-6.028,1.936L193.781,18.994z"/>
			<path fill="#F1A529" d="M199.808,15.527l-7.222,2.317l7.222,2.317l7.223-2.317L199.808,15.527z M193.781,17.765l6.026-1.935     l6.029,1.935l-6.029,1.933L193.781,17.765z"/>
			<path fill="#FFCD2B" d="M199.808,14.297l-7.222,2.316l7.222,2.317l7.223-2.317L199.808,14.297z M193.781,16.533l6.026-1.934     l6.029,1.934l-6.029,1.934L193.781,16.533z"/>
		</g>
		<g>
			<path fill="#F0822F" d="M219.066,16.759l-7.222,2.315l7.222,2.317l7.222-2.317L219.066,16.759z M213.04,18.994l6.026-1.934     l6.026,1.934l-6.026,1.935L213.04,18.994z"/>
			<path fill="#F1A529" d="M219.066,15.527l-7.222,2.317l7.222,2.316l7.222-2.316L219.066,15.527z M213.04,17.764l6.026-1.934     l6.028,1.934l-6.028,1.934L213.04,17.764z"/>
			<path fill="#FFCD2B" d="M219.066,14.296l-7.222,2.317l7.222,2.316l7.222-2.316L219.066,14.296z M213.04,16.533l6.026-1.934     l6.028,1.934l-6.028,1.934L213.04,16.533z"/>
		</g>
		<g>
			<path fill="#F0822F" d="M267.213,12.414l-36.11,11.584l36.11,11.586l36.11-11.586L267.213,12.414z M237.078,23.598l30.136-9.668     l30.134,9.668l-30.134,9.668L237.078,23.598z"/>
			<path fill="#F1A529" d="M267.213,6.258l-36.11,11.587l36.11,11.585l36.11-11.585L267.213,6.258z M237.078,17.443l30.136-9.668     l30.136,9.668l-30.136,9.668L237.078,17.443z"/>
			<path fill="#FFCD2B" d="M267.213,0.105l-36.11,11.583l36.11,11.585l36.11-11.585L267.213,0.105z M237.078,11.289l30.136-9.668     l30.136,9.668l-30.136,9.666L237.078,11.289z"/>
		</g>
	</g>
</g>
</svg>